<?xml version="1.0" standalone="no"?>
<!DOCTYPE svg PUBLIC "-//W3C//DTD SVG 20010904//EN"
 "http://www.w3.org/TR/2001/REC-SVG-20010904/DTD/svg10.dtd">
<svg version="1.0" xmlns="http://www.w3.org/2000/svg"
 width="340.000000pt" height="340.000000pt" viewBox="0 0 340.000000 340.000000"
 preserveAspectRatio="xMidYMid meet">
<metadata>
Created by potrace 1.11, written by Peter Selinger 2001-2013
</metadata>
<g transform="translate(0.000000,340.000000) scale(0.100000,-0.100000)"
fill="#000000" stroke="none">
<path d="M1484 2552 c-104 -36 -140 -78 -135 -154 0 -9 17 -37 36 -62 l35 -46
-17 -35 c-9 -19 -20 -35 -24 -35 -4 0 -10 -19 -14 -42 -4 -24 -15 -57 -26 -73
-24 -41 -35 -111 -20 -129 6 -8 15 -53 19 -100 9 -102 16 -98 -114 -61 -183
53 -341 150 -475 293 l-73 78 -306 -43 c-168 -24 -310 -45 -317 -48 -12 -4
-28 -63 -20 -72 3 -2 142 14 309 37 l303 42 91 -88 c147 -143 320 -238 522
-287 48 -11 89 -22 90 -23 2 -1 15 -53 28 -116 44 -210 104 -369 160 -425 13
-13 24 -28 24 -34 0 -30 44 -92 75 -105 41 -17 165 -17 285 -1 78 11 85 14 88
36 3 21 1 23 -20 18 -12 -4 -79 -12 -148 -18 -159 -15 -198 -8 -223 43 -17 35
-17 37 3 70 11 18 20 44 20 58 0 23 3 21 24 -15 13 -22 48 -59 76 -82 60 -49
106 -57 139 -24 20 20 41 80 41 118 0 13 18 56 40 97 52 99 64 173 57 351 l-5
140 76 45 c152 90 334 292 407 453 18 39 33 59 48 62 12 2 166 25 341 50 176
25 321 47 324 50 10 10 -21 65 -37 65 -25 0 -702 -98 -705 -102 -1 -1 -15 -33
-30 -70 -63 -151 -207 -323 -353 -420 -39 -27 -76 -48 -81 -48 -5 0 -16 39
-23 86 -12 80 -11 88 5 100 17 12 17 17 -9 93 -30 92 -62 144 -90 150 -11 2
-39 21 -63 42 -33 31 -49 39 -75 38 -25 -2 -40 5 -68 34 -74 74 -138 37 -184
-108 l-13 -40 -46 49 c-69 73 -59 114 36 157 45 20 68 24 148 23 52 0 113 -6
134 -12 45 -13 43 -14 48 13 2 17 -5 22 -52 32 -85 17 -207 15 -266 -5z m165
-136 c8 -10 8 -21 -2 -45 l-13 -31 -32 33 c-25 26 -29 36 -20 45 16 16 53 15
67 -2z m136 -66 c3 -5 1 -10 -4 -10 -6 0 -11 5 -11 10 0 6 2 10 4 10 3 0 8 -4
11 -10z m59 -1084 c44 -40 31 -136 -17 -136 -38 0 -47 17 -31 56 8 18 14 49
14 69 0 19 2 35 4 35 3 0 16 -11 30 -24z"/>
<path d="M2048 826 c-40 -50 -119 -86 -190 -86 -32 0 -75 7 -96 15 -34 15 -38
15 -49 -1 -21 -28 -15 -41 25 -57 127 -50 281 -10 366 96 30 38 30 39 12 53
-29 20 -38 18 -68 -20z"/>
<path d="M2209 744 c-19 -36 -95 -101 -149 -129 -99 -50 -234 -56 -327 -15
-59 26 -67 25 -81 -5 -10 -22 -9 -26 16 -39 66 -34 144 -49 238 -44 80 4 103
10 166 40 81 39 155 99 189 155 22 35 22 36 4 49 -27 20 -40 17 -56 -12z"/>
<path d="M2374 674 c-108 -158 -332 -273 -529 -273 -73 0 -195 27 -263 59 -63
29 -67 30 -80 13 -23 -32 -9 -47 73 -80 302 -121 648 -27 839 228 25 34 46 67
46 73 0 7 -11 18 -24 24 -22 10 -27 6 -62 -44z"/>
</g>
</svg>
